<?xml version="1.0" standalone="no"?><!DOCTYPE svg PUBLIC "-//W3C//DTD SVG 1.1//EN" "http://www.w3.org/Graphics/SVG/1.1/DTD/svg11.dtd"><svg t="1751004500037" class="icon" viewBox="0 0 1024 1024" version="1.1" xmlns="http://www.w3.org/2000/svg" p-id="10243" xmlns:xlink="http://www.w3.org/1999/xlink" width="200" height="200"><path d="M512 0C228.693333 0 0 228.693333 0 512s228.693333 512 512 512 512-228.693333 512-512S795.306667 0 512 0z m310.613333 679.253333s-6.826667 40.96-47.786666 51.2c0 0-92.16-54.613333-126.293334-92.16 0 0-170.666667-160.426667-191.146666-180.906666 0 0-3.413333-3.413333-6.826667 6.826666l-47.786667 153.6s-146.773333-27.306667-201.386666-129.706666l146.773333-98.986667 71.68-92.16s6.826667-10.24 30.72 0c0 0 44.373333 20.48 78.506667 78.506667 0 0 47.786667 81.92 98.986666 126.293333 0 0 88.746667 71.68 160.426667 102.4-6.826667 0 44.373333 13.653333 34.133333 75.093333z" fill="#1990ff" p-id="10244"></path></svg>